# xmcd
# 
# Track frame offsets:
#     150
#     13913
#     29647
#     45445
#     54725
#     98705
#     111850
#     125562
#     147134
#     164809
#     187267
#     216945
#     235310
#     254600
#     276590
#     291432
# 
# Disc length: 4237
# 
# Revision: 0
# Processed by: cddbd v1.5.2PL0 Copyright (c) Steve Scherf et al.
# Submitted via: fre:ac v1.0.27
# 
DISCID=0a108b10
DTITLE=Outlaws - Best Of The Outlaws
DYEAR=0
DGENRE=
TTITLE0=There Goes Another Love Song
TTITLE1=Knoxville Girl
TTITLE2=Song For You
TTITLE3=Waterhole
TTITLE4=Green Grass and High Tides
TTITLE5=Breaker Breaker
TTITLE6=South Carolina
TTITLE7=Freeborn Man
TTITLE8=Prisoner
TTITLE9=Girl From Ohio
TTITLE10=Stick Around For Rock and Roll
TTITLE11=Hurry Sundown
TTITLE12=Gunsmoke
TTITLE13=You Are The Show
TTITLE14=Take It Any Way You Want It
TTITLE15=(Ghost) Riders In The Sky
EXTD=
EXTT0=
EXTT1=
EXTT2=
EXTT3=
EXTT4=
EXTT5=
EXTT6=
EXTT7=
EXTT8=
EXTT9=
EXTT10=
EXTT11=
EXTT12=
EXTT13=
EXTT14=
EXTT15=
PLAYORDER=
